<mxfile host="app.diagrams.net" modified="2021-04-18T22:34:14.269Z" agent="5.0 (Windows NT 10.0; Win64; x64) AppleWebKit/537.36 (KHTML, like Gecko) Chrome/89.0.4389.128 Safari/537.36" etag="OJBz5UN6Tr8RbyLuTnxB" version="14.6.1" type="github">
  <diagram id="qOudbiMunithdWsutA0_" name="Page-1">
    <mxGraphModel dx="1038" dy="523" grid="1" gridSize="10" guides="1" tooltips="1" connect="1" arrows="1" fold="1" page="1" pageScale="1" pageWidth="850" pageHeight="1100" math="0" shadow="0">
      <root>
        <mxCell id="0" />
        <mxCell id="1" parent="0" />
        <mxCell id="P2P4n4WQSy0chBbJQamK-13" value="&lt;b&gt;ConnectLeader&lt;/b&gt;" style="rounded=0;whiteSpace=wrap;html=1;" parent="1" vertex="1">
          <mxGeometry x="60" y="390" width="600" height="170" as="geometry" />
        </mxCell>
        <mxCell id="P2P4n4WQSy0chBbJQamK-12" value="&lt;b&gt;Salesforce&lt;/b&gt;" style="rounded=0;whiteSpace=wrap;html=1;" parent="1" vertex="1">
          <mxGeometry x="60" y="30" width="600" height="300" as="geometry" />
        </mxCell>
        <mxCell id="P2P4n4WQSy0chBbJQamK-4" style="edgeStyle=none;rounded=0;orthogonalLoop=1;jettySize=auto;html=1;entryX=0;entryY=0.5;entryDx=0;entryDy=0;" parent="1" target="P2P4n4WQSy0chBbJQamK-6" edge="1">
          <mxGeometry relative="1" as="geometry">
            <mxPoint x="260" y="95" as="sourcePoint" />
          </mxGeometry>
        </mxCell>
        <mxCell id="P2P4n4WQSy0chBbJQamK-1" value="Visualforce Pages" style="rounded=0;whiteSpace=wrap;html=1;" parent="1" vertex="1">
          <mxGeometry x="80" y="45" width="180" height="225" as="geometry" />
        </mxCell>
        <mxCell id="P2P4n4WQSy0chBbJQamK-2" value="CL API" style="rounded=0;whiteSpace=wrap;html=1;" parent="1" vertex="1">
          <mxGeometry x="470" y="420" width="160" height="100" as="geometry" />
        </mxCell>
        <mxCell id="P2P4n4WQSy0chBbJQamK-7" style="edgeStyle=none;rounded=0;orthogonalLoop=1;jettySize=auto;html=1;" parent="1" source="P2P4n4WQSy0chBbJQamK-6" target="P2P4n4WQSy0chBbJQamK-2" edge="1">
          <mxGeometry relative="1" as="geometry">
            <mxPoint x="530" y="350" as="sourcePoint" />
          </mxGeometry>
        </mxCell>
        <mxCell id="P2P4n4WQSy0chBbJQamK-6" value="Apex Classes" style="rounded=0;whiteSpace=wrap;html=1;" parent="1" vertex="1">
          <mxGeometry x="470" y="50" width="160" height="90" as="geometry" />
        </mxCell>
        <mxCell id="P2P4n4WQSy0chBbJQamK-10" value="Canvas App for loading CL app" style="rounded=0;whiteSpace=wrap;html=1;" parent="1" vertex="1">
          <mxGeometry x="90" y="180" width="150" height="70" as="geometry" />
        </mxCell>
        <mxCell id="P2P4n4WQSy0chBbJQamK-11" value="Softphone" style="rounded=0;whiteSpace=wrap;html=1;" parent="1" vertex="1">
          <mxGeometry x="90" y="65" width="150" height="60" as="geometry" />
        </mxCell>
        <mxCell id="P2P4n4WQSy0chBbJQamK-16" style="edgeStyle=none;rounded=0;orthogonalLoop=1;jettySize=auto;html=1;" parent="1" source="P2P4n4WQSy0chBbJQamK-15" target="P2P4n4WQSy0chBbJQamK-10" edge="1">
          <mxGeometry relative="1" as="geometry" />
        </mxCell>
        <mxCell id="P2P4n4WQSy0chBbJQamK-15" value="CL App" style="rounded=0;whiteSpace=wrap;html=1;" parent="1" vertex="1">
          <mxGeometry x="90" y="430" width="150" height="90" as="geometry" />
        </mxCell>
      </root>
    </mxGraphModel>
  </diagram>
</mxfile>
